<?xml version="1.0" encoding="UTF-8" standalone="no"?>
<!DOCTYPE svg PUBLIC "-//W3C//DTD SVG 1.1//EN"
 "http://www.w3.org/Graphics/SVG/1.1/DTD/svg11.dtd">
<!-- Generated by graphviz version 2.38.0 (20140413.2041)
 -->
<!-- Title: graphname Pages: 1 -->
<svg width="459pt" height="1373pt"
 viewBox="0.00 0.00 459.06 1373.20" xmlns="http://www.w3.org/2000/svg" xmlns:xlink="http://www.w3.org/1999/xlink">
<g id="graph0" class="graph" transform="scale(1 1) rotate(0) translate(4 1369.2)">
<title>graphname</title>
<polygon fill="white" stroke="none" points="-4,4 -4,-1369.2 455.062,-1369.2 455.062,4 -4,4"/>
<!-- p0 -->
<g id="node1" class="node"><title>p0</title>
<ellipse fill="none" stroke="black" cx="275.59" cy="-1347.2" rx="56.5373" ry="18"/>
<text text-anchor="middle" x="275.59" y="-1343" font-family="Times,serif" font-size="14.00">1_extractPdb</text>
</g>
<!-- p3 -->
<g id="node2" class="node"><title>p3</title>
<ellipse fill="none" stroke="black" cx="275.59" cy="-1261.2" rx="35.806" ry="18"/>
<text text-anchor="middle" x="275.59" y="-1257" font-family="Times,serif" font-size="14.00">3_filter</text>
</g>
<!-- p0&#45;&gt;p3 -->
<g id="edge1" class="edge"><title>p0&#45;&gt;p3</title>
<path fill="none" stroke="black" d="M275.59,-1328.8C275.59,-1317.46 275.59,-1302.43 275.59,-1289.52"/>
<polygon fill="black" stroke="black" points="279.09,-1289.3 275.59,-1279.3 272.09,-1289.3 279.09,-1289.3"/>
<text text-anchor="middle" x="301.259" y="-1300" font-family="Times,serif" font-size="14.00">pdb_files</text>
</g>
<!-- p4 -->
<g id="node6" class="node"><title>p4</title>
<ellipse fill="none" stroke="black" cx="275.59" cy="-1175.2" rx="60.8873" ry="18"/>
<text text-anchor="middle" x="275.59" y="-1171" font-family="Times,serif" font-size="14.00">4_pdb_extract</text>
</g>
<!-- p3&#45;&gt;p4 -->
<g id="edge4" class="edge"><title>p3&#45;&gt;p4</title>
<path fill="none" stroke="black" d="M275.59,-1242.8C275.59,-1231.46 275.59,-1216.43 275.59,-1203.52"/>
<polygon fill="black" stroke="black" points="279.09,-1203.3 275.59,-1193.3 272.09,-1203.3 279.09,-1203.3"/>
<text text-anchor="middle" x="308.638" y="-1214" font-family="Times,serif" font-size="14.00">temp_struct</text>
</g>
<!-- p1 -->
<g id="node3" class="node"><title>p1</title>
<ellipse fill="none" stroke="black" cx="279.59" cy="-988.2" rx="57.0219" ry="18"/>
<text text-anchor="middle" x="279.59" y="-984" font-family="Times,serif" font-size="14.00">2_extractFull</text>
</g>
<!-- p2 -->
<g id="node4" class="node"><title>p2</title>
<ellipse fill="none" stroke="black" cx="279.59" cy="-916.7" rx="3.5" ry="3.5"/>
<text text-anchor="middle" x="264.038" y="-923" font-family="Times,serif" font-size="14.00">map</text>
</g>
<!-- p1&#45;&gt;p2 -->
<g id="edge2" class="edge"><title>p1&#45;&gt;p2</title>
<path fill="none" stroke="black" d="M279.59,-970.02C279.59,-957.77 279.59,-941.567 279.59,-930.456"/>
<polygon fill="black" stroke="black" points="283.09,-930.295 279.59,-920.295 276.09,-930.295 283.09,-930.295"/>
<text text-anchor="middle" x="304.479" y="-941" font-family="Times,serif" font-size="14.00">full_files</text>
</g>
<!-- p9 -->
<g id="node5" class="node"><title>p9</title>
<ellipse fill="none" stroke="black" cx="279.59" cy="-859.7" rx="3.5" ry="3.5"/>
<text text-anchor="middle" x="260.152" y="-866" font-family="Times,serif" font-size="14.00">phase</text>
</g>
<!-- p2&#45;&gt;p9 -->
<g id="edge3" class="edge"><title>p2&#45;&gt;p9</title>
<path fill="none" stroke="black" d="M279.59,-913.047C279.59,-906.022 279.59,-886.579 279.59,-873.471"/>
<polygon fill="black" stroke="black" points="283.09,-873.456 279.59,-863.456 276.09,-873.456 283.09,-873.456"/>
<text text-anchor="middle" x="307.979" y="-884" font-family="Times,serif" font-size="14.00">full_files2</text>
</g>
<!-- p10 -->
<g id="node14" class="node"><title>p10</title>
<ellipse fill="none" stroke="black" cx="268.59" cy="-802.7" rx="3.5" ry="3.5"/>
<text text-anchor="middle" x="253.038" y="-809" font-family="Times,serif" font-size="14.00">map</text>
</g>
<!-- p9&#45;&gt;p10 -->
<g id="edge13" class="edge"><title>p9&#45;&gt;p10</title>
<path fill="none" stroke="black" d="M279.059,-856.047C277.641,-848.957 273.694,-829.218 271.072,-816.108"/>
<polygon fill="black" stroke="black" points="274.483,-815.319 269.09,-806.199 267.619,-816.692 274.483,-815.319"/>
</g>
<!-- p5 -->
<g id="node7" class="node"><title>p5</title>
<ellipse fill="none" stroke="black" cx="220.59" cy="-1103.7" rx="3.5" ry="3.5"/>
<text text-anchor="middle" x="203.869" y="-1110" font-family="Times,serif" font-size="14.00">filter</text>
</g>
<!-- p4&#45;&gt;p5 -->
<g id="edge5" class="edge"><title>p4&#45;&gt;p5</title>
<path fill="none" stroke="black" d="M242.943,-1159.99C234.583,-1154.71 226.584,-1147.85 221.707,-1139.2 218.027,-1132.68 217.674,-1124.3 218.277,-1117.43"/>
<polygon fill="black" stroke="black" points="221.753,-1117.86 219.882,-1107.43 214.841,-1116.75 221.753,-1117.86"/>
<text text-anchor="middle" x="266.531" y="-1128" font-family="Times,serif" font-size="14.00">modified_struct</text>
</g>
<!-- p35 -->
<g id="node8" class="node"><title>p35</title>
<ellipse fill="none" stroke="black" cx="331.59" cy="-1103.7" rx="3.5" ry="3.5"/>
<text text-anchor="middle" x="301.652" y="-1110" font-family="Times,serif" font-size="14.00">subscribe</text>
</g>
<!-- p4&#45;&gt;p35 -->
<g id="edge6" class="edge"><title>p4&#45;&gt;p35</title>
<path fill="none" stroke="black" d="M292.919,-1157.75C298.502,-1152.09 304.544,-1145.58 309.59,-1139.2 315.49,-1131.74 321.236,-1122.65 325.375,-1115.67"/>
<polygon fill="black" stroke="black" points="328.417,-1117.4 330.348,-1106.99 322.342,-1113.92 328.417,-1117.4"/>
<text text-anchor="middle" x="330.479" y="-1128" font-family="Times,serif" font-size="14.00">pml</text>
</g>
<!-- p6 -->
<g id="node9" class="node"><title>p6</title>
<ellipse fill="none" stroke="black" cx="220.59" cy="-1059.7" rx="3.5" ry="3.5"/>
<text text-anchor="middle" x="208.538" y="-1066" font-family="Times,serif" font-size="14.00">tap</text>
</g>
<!-- p5&#45;&gt;p6 -->
<g id="edge7" class="edge"><title>p5&#45;&gt;p6</title>
<path fill="none" stroke="black" d="M220.59,-1099.94C220.59,-1094.67 220.59,-1082.83 220.59,-1073.52"/>
<polygon fill="black" stroke="black" points="224.09,-1073.52 220.59,-1063.52 217.09,-1073.52 224.09,-1073.52"/>
</g>
<!-- p7 -->
<g id="node10" class="node"><title>p7</title>
<ellipse fill="none" stroke="black" cx="358.59" cy="-988.2" rx="3.5" ry="3.5"/>
<text text-anchor="middle" x="346.538" y="-994.5" font-family="Times,serif" font-size="14.00">tap</text>
</g>
<!-- p6&#45;&gt;p7 -->
<g id="edge8" class="edge"><title>p6&#45;&gt;p7</title>
<path fill="none" stroke="black" d="M223.852,-1058.17C234.518,-1056.37 269.191,-1049.93 295.59,-1038.2 319.701,-1027.49 326.171,-1024.06 345.59,-1006.2 347.545,-1004.4 349.422,-1002.28 351.112,-1000.16"/>
<polygon fill="black" stroke="black" points="354.074,-1002.03 356.985,-991.846 348.357,-997.995 354.074,-1002.03"/>
</g>
<!-- p12 -->
<g id="node11" class="node"><title>p12</title>
<ellipse fill="none" stroke="black" cx="138.59" cy="-988.2" rx="66.2167" ry="18"/>
<text text-anchor="middle" x="138.59" y="-984" font-family="Times,serif" font-size="14.00">5_Lib_and_Aln</text>
</g>
<!-- p6&#45;&gt;p12 -->
<g id="edge9" class="edge"><title>p6&#45;&gt;p12</title>
<path fill="none" stroke="black" d="M218.224,-1056.69C210.562,-1050.2 185.768,-1029.19 165.858,-1012.31"/>
<polygon fill="black" stroke="black" points="167.856,-1009.42 157.964,-1005.62 163.33,-1014.76 167.856,-1009.42"/>
<text text-anchor="middle" x="244.031" y="-1027" font-family="Times,serif" font-size="14.00">modified_struct1</text>
</g>
<!-- p8 -->
<g id="node12" class="node"><title>p8</title>
<ellipse fill="none" stroke="black" cx="419.59" cy="-916.7" rx="3.5" ry="3.5"/>
<text text-anchor="middle" x="404.038" y="-923" font-family="Times,serif" font-size="14.00">map</text>
</g>
<!-- p7&#45;&gt;p8 -->
<g id="edge10" class="edge"><title>p7&#45;&gt;p8</title>
<path fill="none" stroke="black" d="M362.193,-987.124C376.266,-986.61 427.766,-982.642 448.59,-952.2 452.103,-947.064 451.451,-943.726 448.59,-938.2 445.117,-931.493 438.328,-926.51 432.191,-923.138"/>
<polygon fill="black" stroke="black" points="433.255,-919.775 422.707,-918.782 430.333,-926.136 433.255,-919.775"/>
</g>
<!-- p34 -->
<g id="node13" class="node"><title>p34</title>
<ellipse fill="none" stroke="black" cx="352.59" cy="-916.7" rx="3.5" ry="3.5"/>
<text text-anchor="middle" x="322.652" y="-923" font-family="Times,serif" font-size="14.00">subscribe</text>
</g>
<!-- p7&#45;&gt;p34 -->
<g id="edge11" class="edge"><title>p7&#45;&gt;p34</title>
<path fill="none" stroke="black" d="M358.142,-984.663C357.146,-978.911 354.755,-964.426 353.707,-952.2 353.091,-945.016 352.808,-936.965 352.68,-930.448"/>
<polygon fill="black" stroke="black" points="356.177,-930.181 352.58,-920.216 349.178,-930.25 356.177,-930.181"/>
<text text-anchor="middle" x="402.031" y="-941" font-family="Times,serif" font-size="14.00">modified_struct2</text>
</g>
<!-- p15 -->
<g id="node16" class="node"><title>p15</title>
<ellipse fill="none" stroke="black" cx="171.59" cy="-687" rx="3.5" ry="3.5"/>
<text text-anchor="middle" x="152.152" y="-693.3" font-family="Times,serif" font-size="14.00">phase</text>
</g>
<!-- p12&#45;&gt;p15 -->
<g id="edge19" class="edge"><title>p12&#45;&gt;p15</title>
<path fill="none" stroke="black" d="M138.974,-970.064C139.256,-955.998 139.59,-935.559 139.59,-917.7 139.59,-917.7 139.59,-917.7 139.59,-757.6 139.59,-734.933 153.774,-711.598 163.255,-698.531"/>
<polygon fill="black" stroke="black" points="166.145,-700.516 169.49,-690.463 160.606,-696.235 166.145,-700.516"/>
<text text-anchor="middle" x="162.148" y="-827" font-family="Times,serif" font-size="14.00">lib_files</text>
</g>
<!-- p32 -->
<g id="node18" class="node"><title>p32</title>
<ellipse fill="none" stroke="black" cx="172.59" cy="-916.7" rx="3.5" ry="3.5"/>
<text text-anchor="middle" x="139.545" y="-923" font-family="Times,serif" font-size="14.00">collectFile</text>
</g>
<!-- p12&#45;&gt;p32 -->
<g id="edge17" class="edge"><title>p12&#45;&gt;p32</title>
<path fill="none" stroke="black" d="M146.994,-970.02C153.183,-957.371 161.433,-940.506 166.873,-929.386"/>
<polygon fill="black" stroke="black" points="170.07,-930.816 171.32,-920.295 163.782,-927.74 170.07,-930.816"/>
<text text-anchor="middle" x="186.311" y="-941" font-family="Times,serif" font-size="14.00">aln_files</text>
</g>
<!-- p30 -->
<g id="node19" class="node"><title>p30</title>
<ellipse fill="none" stroke="black" cx="62.5898" cy="-916.7" rx="3.5" ry="3.5"/>
<text text-anchor="middle" x="29.5449" y="-923" font-family="Times,serif" font-size="14.00">collectFile</text>
</g>
<!-- p12&#45;&gt;p30 -->
<g id="edge18" class="edge"><title>p12&#45;&gt;p30</title>
<path fill="none" stroke="black" d="M92.4854,-975.295C81.1025,-970.093 70.2182,-962.69 63.3623,-952.2 59.1312,-945.726 58.9709,-937.008 59.8518,-929.956"/>
<polygon fill="black" stroke="black" points="63.2879,-930.622 61.8449,-920.126 56.4275,-929.231 63.2879,-930.622"/>
<text text-anchor="middle" x="94.7036" y="-941" font-family="Times,serif" font-size="14.00">irmsd_files</text>
</g>
<!-- p8&#45;&gt;p9 -->
<g id="edge12" class="edge"><title>p8&#45;&gt;p9</title>
<path fill="none" stroke="black" d="M416.897,-914.421C406.915,-909.702 371.032,-892.937 340.59,-881.2 324.328,-874.93 305.233,-868.689 292.797,-864.77"/>
<polygon fill="black" stroke="black" points="293.52,-861.33 282.932,-861.71 291.446,-868.016 293.52,-861.33"/>
</g>
<!-- p11 -->
<g id="node15" class="node"><title>p11</title>
<ellipse fill="none" stroke="black" cx="261.59" cy="-758.6" rx="3.5" ry="3.5"/>
<text text-anchor="middle" x="235.162" y="-764.9" font-family="Times,serif" font-size="14.00">separate</text>
</g>
<!-- p10&#45;&gt;p11 -->
<g id="edge14" class="edge"><title>p10&#45;&gt;p11</title>
<path fill="none" stroke="black" d="M268.131,-798.938C267.251,-793.646 265.278,-781.779 263.727,-772.454"/>
<polygon fill="black" stroke="black" points="267.153,-771.718 262.06,-762.428 260.248,-772.866 267.153,-771.718"/>
</g>
<!-- p11&#45;&gt;p15 -->
<g id="edge15" class="edge"><title>p11&#45;&gt;p15</title>
<path fill="none" stroke="black" d="M258.208,-757.572C247.225,-757.301 212.107,-754.999 192.059,-737 181.491,-727.513 176.23,-711.704 173.716,-700.614"/>
<polygon fill="black" stroke="black" points="177.143,-699.898 171.907,-690.688 170.256,-701.153 177.143,-699.898"/>
<text text-anchor="middle" x="224.855" y="-725.8" font-family="Times,serif" font-size="14.00">fam_names</text>
</g>
<!-- p14 -->
<g id="node17" class="node"><title>p14</title>
<ellipse fill="none" stroke="black" cx="281.59" cy="-687" rx="88.5815" ry="18"/>
<text text-anchor="middle" x="281.59" y="-682.8" font-family="Times,serif" font-size="14.00">6_Large_scale_MSAs</text>
</g>
<!-- p11&#45;&gt;p14 -->
<g id="edge16" class="edge"><title>p11&#45;&gt;p14</title>
<path fill="none" stroke="black" d="M261.24,-755.023C260.535,-749.196 259.266,-734.606 262.383,-723 263.184,-720.017 264.288,-717.012 265.566,-714.083"/>
<polygon fill="black" stroke="black" points="268.714,-715.613 270.078,-705.106 262.46,-712.469 268.714,-715.613"/>
<text text-anchor="middle" x="286.693" y="-725.8" font-family="Times,serif" font-size="14.00">fam_full</text>
</g>
<!-- p16 -->
<g id="node22" class="node"><title>p16</title>
<ellipse fill="none" stroke="black" cx="179.59" cy="-615.5" rx="3.5" ry="3.5"/>
<text text-anchor="middle" x="164.038" y="-621.8" font-family="Times,serif" font-size="14.00">map</text>
</g>
<!-- p15&#45;&gt;p16 -->
<g id="edge22" class="edge"><title>p15&#45;&gt;p16</title>
<path fill="none" stroke="black" d="M171.894,-683.36C172.903,-674.588 176.193,-646.011 178.129,-629.191"/>
<polygon fill="black" stroke="black" points="181.619,-629.477 179.286,-619.142 174.665,-628.676 181.619,-629.477"/>
</g>
<!-- p20 -->
<g id="node21" class="node"><title>p20</title>
<ellipse fill="none" stroke="black" cx="281.59" cy="-615.5" rx="3.5" ry="3.5"/>
<text text-anchor="middle" x="267.2" y="-621.8" font-family="Times,serif" font-size="14.00">mix</text>
</g>
<!-- p14&#45;&gt;p20 -->
<g id="edge21" class="edge"><title>p14&#45;&gt;p20</title>
<path fill="none" stroke="black" d="M281.59,-668.82C281.59,-656.57 281.59,-640.367 281.59,-629.256"/>
<polygon fill="black" stroke="black" points="285.09,-629.095 281.59,-619.095 278.09,-629.095 285.09,-629.095"/>
<text text-anchor="middle" x="310.232" y="-639.8" font-family="Times,serif" font-size="14.00">large_msa</text>
</g>
<!-- p33 -->
<g id="node36" class="node"><title>p33</title>
<ellipse fill="black" stroke="black" cx="172.59" cy="-859.7" rx="1.8" ry="1.8"/>
</g>
<!-- p32&#45;&gt;p33 -->
<g id="edge38" class="edge"><title>p32&#45;&gt;p33</title>
<path fill="none" stroke="black" d="M172.59,-913.047C172.59,-905.735 172.59,-884.97 172.59,-871.897"/>
<polygon fill="black" stroke="black" points="176.09,-871.731 172.59,-861.731 169.09,-871.731 176.09,-871.731"/>
</g>
<!-- p31 -->
<g id="node35" class="node"><title>p31</title>
<ellipse fill="black" stroke="black" cx="62.5898" cy="-859.7" rx="1.8" ry="1.8"/>
</g>
<!-- p30&#45;&gt;p31 -->
<g id="edge37" class="edge"><title>p30&#45;&gt;p31</title>
<path fill="none" stroke="black" d="M62.5898,-913.047C62.5898,-905.735 62.5898,-884.97 62.5898,-871.897"/>
<polygon fill="black" stroke="black" points="66.0899,-871.731 62.5898,-861.731 59.0899,-871.731 66.0899,-871.731"/>
</g>
<!-- p13 -->
<g id="node20" class="node"><title>p13</title>
<ellipse fill="black" stroke="black" cx="332.59" cy="-758.6" rx="3.6" ry="3.6"/>
</g>
<!-- p13&#45;&gt;p14 -->
<g id="edge20" class="edge"><title>p13&#45;&gt;p14</title>
<path fill="none" stroke="black" d="M331.095,-755.01C327.683,-749.154 318.967,-734.511 310.59,-723 308.203,-719.72 305.605,-716.346 302.977,-713.048"/>
<polygon fill="black" stroke="black" points="305.524,-710.634 296.487,-705.104 300.103,-715.062 305.524,-710.634"/>
<text text-anchor="middle" x="341.586" y="-725.8" font-family="Times,serif" font-size="14.00">method</text>
</g>
<!-- p21 -->
<g id="node24" class="node"><title>p21</title>
<ellipse fill="none" stroke="black" cx="279.59" cy="-472.5" rx="3.5" ry="3.5"/>
<text text-anchor="middle" x="261.704" y="-478.8" font-family="Times,serif" font-size="14.00">cross</text>
</g>
<!-- p20&#45;&gt;p21 -->
<g id="edge28" class="edge"><title>p20&#45;&gt;p21</title>
<path fill="none" stroke="black" d="M281.548,-611.555C281.32,-595.499 280.222,-518.098 279.778,-486.737"/>
<polygon fill="black" stroke="black" points="283.273,-486.378 279.631,-476.429 276.274,-486.477 283.273,-486.378"/>
<text text-anchor="middle" x="303.362" y="-539.8" font-family="Times,serif" font-size="14.00">all_msa</text>
</g>
<!-- p17 -->
<g id="node23" class="node"><title>p17</title>
<ellipse fill="none" stroke="black" cx="180.59" cy="-544" rx="36.2992" ry="18"/>
<text text-anchor="middle" x="180.59" y="-539.8" font-family="Times,serif" font-size="14.00">7_splib</text>
</g>
<!-- p16&#45;&gt;p17 -->
<g id="edge23" class="edge"><title>p16&#45;&gt;p17</title>
<path fill="none" stroke="black" d="M179.628,-611.86C179.722,-605.333 179.973,-587.843 180.196,-572.388"/>
<polygon fill="black" stroke="black" points="183.698,-572.224 180.343,-562.174 176.699,-572.123 183.698,-572.224"/>
<text text-anchor="middle" x="202.362" y="-582.8" font-family="Times,serif" font-size="14.00">fam_lib</text>
</g>
<!-- p17&#45;&gt;p21 -->
<g id="edge24" class="edge"><title>p17&#45;&gt;p21</title>
<path fill="none" stroke="black" d="M192.33,-526.592C200.567,-516.076 212.392,-502.796 225.362,-494 238.086,-485.371 254.932,-479.741 266.451,-476.603"/>
<polygon fill="black" stroke="black" points="267.538,-479.94 276.413,-474.153 265.866,-473.143 267.538,-479.94"/>
<text text-anchor="middle" x="246.204" y="-496.8" font-family="Times,serif" font-size="14.00">sp_lib1</text>
</g>
<!-- p24 -->
<g id="node25" class="node"><title>p24</title>
<ellipse fill="none" stroke="black" cx="213.59" cy="-278.5" rx="3.5" ry="3.5"/>
<text text-anchor="middle" x="195.704" y="-284.8" font-family="Times,serif" font-size="14.00">cross</text>
</g>
<!-- p17&#45;&gt;p24 -->
<g id="edge25" class="edge"><title>p17&#45;&gt;p24</title>
<path fill="none" stroke="black" d="M180.59,-525.863C180.59,-511.796 180.59,-491.358 180.59,-473.5 180.59,-473.5 180.59,-473.5 180.59,-349 180.59,-326.235 195.217,-302.976 204.995,-289.972"/>
<polygon fill="black" stroke="black" points="207.903,-291.94 211.425,-281.947 202.441,-287.563 207.903,-291.94"/>
<text text-anchor="middle" x="201.204" y="-420.8" font-family="Times,serif" font-size="14.00">sp_lib2</text>
</g>
<!-- p22 -->
<g id="node28" class="node"><title>p22</title>
<ellipse fill="none" stroke="black" cx="279.59" cy="-425" rx="3.5" ry="3.5"/>
<text text-anchor="middle" x="264.038" y="-431.3" font-family="Times,serif" font-size="14.00">map</text>
</g>
<!-- p21&#45;&gt;p22 -->
<g id="edge29" class="edge"><title>p21&#45;&gt;p22</title>
<path fill="none" stroke="black" d="M279.59,-468.79C279.59,-463.023 279.59,-449.215 279.59,-438.833"/>
<polygon fill="black" stroke="black" points="283.09,-438.639 279.59,-428.639 276.09,-438.639 283.09,-438.639"/>
</g>
<!-- p25 -->
<g id="node30" class="node"><title>p25</title>
<ellipse fill="none" stroke="black" cx="213.59" cy="-234.5" rx="3.5" ry="3.5"/>
<text text-anchor="middle" x="198.038" y="-240.8" font-family="Times,serif" font-size="14.00">map</text>
</g>
<!-- p24&#45;&gt;p25 -->
<g id="edge32" class="edge"><title>p24&#45;&gt;p25</title>
<path fill="none" stroke="black" d="M213.59,-274.744C213.59,-269.466 213.59,-257.626 213.59,-248.323"/>
<polygon fill="black" stroke="black" points="217.09,-248.321 213.59,-238.321 210.09,-248.321 217.09,-248.321"/>
</g>
<!-- p18 -->
<g id="node26" class="node"><title>p18</title>
<ellipse fill="black" stroke="black" cx="391.59" cy="-758.6" rx="3.6" ry="3.6"/>
<text text-anchor="middle" x="361.938" y="-765" font-family="Times,serif" font-size="14.00">fromPath</text>
</g>
<!-- p19 -->
<g id="node27" class="node"><title>p19</title>
<ellipse fill="none" stroke="black" cx="391.59" cy="-687" rx="3.5" ry="3.5"/>
<text text-anchor="middle" x="400.142" y="-693.3" font-family="Times,serif" font-size="14.00">map</text>
</g>
<!-- p18&#45;&gt;p19 -->
<g id="edge26" class="edge"><title>p18&#45;&gt;p19</title>
<path fill="none" stroke="black" d="M391.59,-754.957C391.59,-746.171 391.59,-717.554 391.59,-700.709"/>
<polygon fill="black" stroke="black" points="395.09,-700.646 391.59,-690.646 388.09,-700.646 395.09,-700.646"/>
</g>
<!-- p19&#45;&gt;p20 -->
<g id="edge27" class="edge"><title>p19&#45;&gt;p20</title>
<path fill="none" stroke="black" d="M390.057,-683.437C387.93,-679.98 383.859,-673.712 379.59,-669 364.991,-652.889 361.472,-647.777 342.59,-637 327.295,-628.271 307.709,-622.519 294.915,-619.388"/>
<polygon fill="black" stroke="black" points="295.615,-615.958 285.091,-617.177 294.078,-622.787 295.615,-615.958"/>
<text text-anchor="middle" x="392.749" y="-639.8" font-family="Times,serif" font-size="14.00">pfam_msa</text>
</g>
<!-- p23 -->
<g id="node29" class="node"><title>p23</title>
<ellipse fill="none" stroke="black" cx="279.59" cy="-350" rx="71.4945" ry="18"/>
<text text-anchor="middle" x="279.59" y="-345.8" font-family="Times,serif" font-size="14.00">8_Extracted_msa</text>
</g>
<!-- p22&#45;&gt;p23 -->
<g id="edge30" class="edge"><title>p22&#45;&gt;p23</title>
<path fill="none" stroke="black" d="M279.59,-421.227C279.59,-414.177 279.59,-394.951 279.59,-378.394"/>
<polygon fill="black" stroke="black" points="283.09,-378.055 279.59,-368.055 276.09,-378.055 283.09,-378.055"/>
<text text-anchor="middle" x="315.362" y="-388.8" font-family="Times,serif" font-size="14.00">lib_and_msa</text>
</g>
<!-- p23&#45;&gt;p24 -->
<g id="edge31" class="edge"><title>p23&#45;&gt;p24</title>
<path fill="none" stroke="black" d="M263.613,-332.176C250.737,-318.618 233.101,-300.045 222.574,-288.961"/>
<polygon fill="black" stroke="black" points="225.089,-286.526 215.665,-281.685 220.013,-291.347 225.089,-286.526"/>
<text text-anchor="middle" x="286.014" y="-302.8" font-family="Times,serif" font-size="14.00">extracted_msa</text>
</g>
<!-- p26 -->
<g id="node31" class="node"><title>p26</title>
<ellipse fill="none" stroke="black" cx="213.59" cy="-163" rx="48.3169" ry="18"/>
<text text-anchor="middle" x="213.59" y="-158.8" font-family="Times,serif" font-size="14.00">9_evaluate</text>
</g>
<!-- p25&#45;&gt;p26 -->
<g id="edge33" class="edge"><title>p25&#45;&gt;p26</title>
<path fill="none" stroke="black" d="M213.59,-230.86C213.59,-224.333 213.59,-206.843 213.59,-191.388"/>
<polygon fill="black" stroke="black" points="217.09,-191.174 213.59,-181.174 210.09,-191.174 217.09,-191.174"/>
<text text-anchor="middle" x="240.024" y="-201.8" font-family="Times,serif" font-size="14.00">msa_eval</text>
</g>
<!-- p27 -->
<g id="node32" class="node"><title>p27</title>
<ellipse fill="none" stroke="black" cx="213.59" cy="-91.5" rx="3.5" ry="3.5"/>
<text text-anchor="middle" x="198.038" y="-97.8" font-family="Times,serif" font-size="14.00">map</text>
</g>
<!-- p26&#45;&gt;p27 -->
<g id="edge34" class="edge"><title>p26&#45;&gt;p27</title>
<path fill="none" stroke="black" d="M213.59,-144.82C213.59,-132.57 213.59,-116.367 213.59,-105.256"/>
<polygon fill="black" stroke="black" points="217.09,-105.095 213.59,-95.095 210.09,-105.095 217.09,-105.095"/>
<text text-anchor="middle" x="242.745" y="-115.8" font-family="Times,serif" font-size="14.00">evaluation</text>
</g>
<!-- p28 -->
<g id="node33" class="node"><title>p28</title>
<ellipse fill="none" stroke="black" cx="213.59" cy="-47.5" rx="3.5" ry="3.5"/>
<text text-anchor="middle" x="185.59" y="-53.8" font-family="Times,serif" font-size="14.00">groupBy</text>
</g>
<!-- p27&#45;&gt;p28 -->
<g id="edge35" class="edge"><title>p27&#45;&gt;p28</title>
<path fill="none" stroke="black" d="M213.59,-87.7443C213.59,-82.4655 213.59,-70.626 213.59,-61.3233"/>
<polygon fill="black" stroke="black" points="217.09,-61.3209 213.59,-51.321 210.09,-61.321 217.09,-61.3209"/>
</g>
<!-- p29 -->
<g id="node34" class="node"><title>p29</title>
<ellipse fill="none" stroke="black" cx="213.59" cy="-3.5" rx="3.5" ry="3.5"/>
<text text-anchor="middle" x="183.652" y="-9.8" font-family="Times,serif" font-size="14.00">subscribe</text>
</g>
<!-- p28&#45;&gt;p29 -->
<g id="edge36" class="edge"><title>p28&#45;&gt;p29</title>
<path fill="none" stroke="black" d="M213.59,-43.7443C213.59,-38.4655 213.59,-26.626 213.59,-17.3233"/>
<polygon fill="black" stroke="black" points="217.09,-17.3209 213.59,-7.32096 210.09,-17.321 217.09,-17.3209"/>
</g>
</g>
</svg>
